<svg width="40" height="41" viewBox="0 0 40 41" fill="none" xmlns="http://www.w3.org/2000/svg">
<path fill-rule="evenodd" clip-rule="evenodd" d="M27.2559 6.02812L5.58928 27.6948L4.41077 26.5163L26.0774 4.84961L27.2559 6.02812Z" fill="#F4B23E"/>
<path fill-rule="evenodd" clip-rule="evenodd" d="M23.294 3.99446C23.0028 3.70323 22.5138 3.70323 22.2225 3.99446L3.55587 22.6611C3.26464 22.9524 3.26464 23.4414 3.55587 23.7326L16.7059 36.8826C16.9971 37.1738 17.4861 37.1738 17.7774 36.8826L36.444 18.216C36.73 17.93 36.742 17.4541 36.4394 17.1399L23.294 3.99446ZM21.044 2.81595C21.9861 1.87385 23.5304 1.87385 24.4725 2.81595L37.6304 15.9738C38.5578 16.9263 38.5689 18.4481 37.6225 19.3945L18.9559 38.0611C18.0138 39.0032 16.4695 39.0032 15.5274 38.0611L2.37735 24.9111C1.43525 23.969 1.43525 22.4247 2.37735 21.4826L21.044 2.81595Z" fill="#F4B23E"/>
<path fill-rule="evenodd" clip-rule="evenodd" d="M29.7583 10.1933L9.17495 30.9433L7.9917 29.7695L28.575 9.01953L29.7583 10.1933Z" fill="#F4B23E"/>
<path fill-rule="evenodd" clip-rule="evenodd" d="M21.4226 25.6835C21.748 26.009 21.748 26.5366 21.4226 26.862L16.4226 31.862C16.0972 32.1875 15.5695 32.1875 15.2441 31.862C14.9186 31.5366 14.9186 31.009 15.2441 30.6835L20.2441 25.6835C20.5695 25.3581 21.0972 25.3581 21.4226 25.6835Z" fill="#F4B23E"/>
</svg>
