<svg width="40" height="43" viewBox="0 0 40 43" fill="none" xmlns="http://www.w3.org/2000/svg">
<path d="M20 38.7119C17.1152 38.7119 14.3763 37.9263 11.7833 36.3551C9.19038 34.7839 7.12119 32.9035 5.57573 30.7141V35.621H3V26.3483H12.2727V28.924H7.46891C8.75679 30.8644 10.5491 32.5516 12.8458 33.9854C15.1425 35.4193 17.5273 36.1362 20 36.1362C21.9833 36.1362 23.8529 35.7563 25.6087 34.9964C27.3645 34.2366 28.8928 33.2063 30.1936 31.9055C31.4943 30.6047 32.5246 29.0765 33.2845 27.3206C34.0443 25.5648 34.4243 23.6952 34.4243 21.7119H37C37 24.0559 36.5557 26.2581 35.667 28.3187C34.7784 30.3793 33.5614 32.1824 32.0159 33.7278C30.4705 35.2733 28.6674 36.4903 26.6068 37.379C24.5462 38.2676 22.3439 38.7119 20 38.7119ZM18.7894 32.7104V30.6498C17.6131 30.3493 16.6365 29.8449 15.8595 29.1365C15.0825 28.4282 14.4535 27.473 13.9727 26.271L16.1364 25.4983C16.4455 26.5028 16.9713 27.282 17.714 27.8358C18.4567 28.3896 19.3046 28.6665 20.2576 28.6665C21.2278 28.6665 22.0413 28.4325 22.6981 27.9646C23.3549 27.4967 23.6834 26.8463 23.6834 26.0135C23.6834 25.1978 23.3635 24.5195 22.7239 23.9786C22.0842 23.4377 20.9187 22.8281 19.2273 22.1498C17.6904 21.5402 16.5463 20.8619 15.7951 20.115C15.0438 19.368 14.6682 18.372 14.6682 17.1271C14.6682 16.0195 15.0481 15.0557 15.808 14.2358C16.5678 13.4158 17.5874 12.9028 18.8667 12.6968V10.7392H21.1849V12.6968C22.1465 12.7912 22.9943 13.1217 23.7284 13.6884C24.4625 14.2551 25.0227 14.9892 25.4091 15.8907L23.3485 16.818C23.0222 16.1397 22.5929 15.6138 22.0606 15.2403C21.5283 14.8668 20.8672 14.6801 20.0773 14.6801C19.1071 14.6801 18.3494 14.899 17.8042 15.3369C17.259 15.7748 16.9864 16.3715 16.9864 17.1271C16.9864 17.8998 17.3083 18.5137 17.9523 18.9687C18.5962 19.4238 19.6737 19.9432 21.1849 20.5271C22.9879 21.2483 24.2414 22.0339 24.9455 22.8839C25.6495 23.7339 26.0015 24.7771 26.0015 26.0135C26.0015 26.6917 25.8813 27.3056 25.6409 27.8551C25.4005 28.4046 25.0678 28.8747 24.6428 29.2653C24.2178 29.656 23.7048 29.9737 23.1038 30.2184C22.5028 30.4631 21.8374 30.6326 21.1076 30.7271V32.7104H18.7894ZM3 21.7119C3 19.368 3.44432 17.1657 4.33295 15.1051C5.22159 13.0445 6.43864 11.2415 7.98409 9.696C9.52955 8.15055 11.3326 6.93351 13.3932 6.04487C15.4538 5.15623 17.6561 4.71191 20 4.71191C22.8848 4.71191 25.6237 5.49752 28.2167 7.06873C30.8096 8.63997 32.8788 10.5203 34.4243 12.7097V7.80282H37V17.0756H27.7273V14.4998H32.5311C31.2432 12.5594 29.4552 10.8723 27.167 9.43842C24.8789 8.00457 22.4899 7.28765 20 7.28765C18.0167 7.28765 16.1471 7.66757 14.3913 8.42742C12.6355 9.18727 11.1072 10.2176 9.80641 11.5183C8.50566 12.8191 7.47535 14.3474 6.7155 16.1032C5.95566 17.859 5.57573 19.7286 5.57573 21.7119H3Z" fill="#F4B23E"/>
</svg>
