<svg width="628" height="46" viewBox="0 0 628 46" fill="none" xmlns="http://www.w3.org/2000/svg">
<g clip-path="url(#clip0_2001_253)">
<path fill-rule="evenodd" clip-rule="evenodd" d="M23 46C35.7025 46 46 35.7025 46 23C46 10.2975 35.7025 0 23 0C10.2975 0 0 10.2975 0 23C0 35.7025 10.2975 46 23 46ZM13 23.099L20.157 30.5813L32.4826 17.6955L30.842 16L20.157 27.1707L14.6406 21.4035L13 23.099Z" fill="#1B442A"/>
</g>
<path d="M68.112 32V14.12H79.632V15.92H70.032V22.136H79.152V23.936H70.032V30.2H79.632V32H68.112ZM83.8633 32V20.936H81.2953V19.136H83.8633V17.984C83.8633 17.088 84.0633 16.336 84.4633 15.728C84.8633 15.104 85.3913 14.632 86.0473 14.312C86.7033 13.992 87.4073 13.832 88.1593 13.832C88.3193 13.832 88.5033 13.848 88.7113 13.88C88.9193 13.896 89.0873 13.92 89.2153 13.952V15.584C89.1033 15.552 88.9513 15.536 88.7593 15.536C88.5673 15.52 88.4313 15.512 88.3513 15.512C87.5833 15.512 86.9433 15.696 86.4313 16.064C85.9193 16.432 85.6633 17.072 85.6633 17.984V19.136H92.8873V20.936H85.6633V32H83.8633ZM93.0553 32V20.936H90.4873V19.136H93.0553V17.984C93.0553 17.088 93.2553 16.336 93.6553 15.728C94.0553 15.104 94.5833 14.632 95.2393 14.312C95.8953 13.992 96.5993 13.832 97.3513 13.832C97.5113 13.832 97.6953 13.848 97.9033 13.88C98.1113 13.896 98.2793 13.92 98.4073 13.952V15.584C98.2953 15.552 98.1433 15.536 97.9513 15.536C97.7593 15.52 97.6233 15.512 97.5433 15.512C96.7753 15.512 96.1353 15.696 95.6233 16.064C95.1113 16.432 94.8553 17.072 94.8553 17.984V19.136H97.9993V20.936H94.8553V32H93.0553ZM106.474 32.288C105.258 32.288 104.154 32 103.162 31.424C102.17 30.832 101.378 30.032 100.786 29.024C100.21 28 99.9216 26.84 99.9216 25.544C99.9216 24.264 100.21 23.12 100.786 22.112C101.362 21.104 102.138 20.312 103.114 19.736C104.106 19.144 105.226 18.848 106.474 18.848C107.722 18.848 108.834 19.136 109.81 19.712C110.802 20.288 111.578 21.08 112.138 22.088C112.714 23.096 113.002 24.248 113.002 25.544C113.002 26.856 112.706 28.024 112.114 29.048C111.522 30.056 110.73 30.848 109.738 31.424C108.762 32 107.674 32.288 106.474 32.288ZM106.474 30.488C107.338 30.488 108.114 30.272 108.802 29.84C109.506 29.408 110.058 28.816 110.458 28.064C110.874 27.312 111.082 26.472 111.082 25.544C111.082 24.616 110.874 23.784 110.458 23.048C110.058 22.312 109.506 21.728 108.802 21.296C108.114 20.864 107.338 20.648 106.474 20.648C105.61 20.648 104.826 20.864 104.122 21.296C103.434 21.728 102.882 22.312 102.466 23.048C102.05 23.784 101.842 24.616 101.842 25.544C101.842 26.472 102.05 27.312 102.466 28.064C102.882 28.816 103.434 29.408 104.122 29.84C104.826 30.272 105.61 30.488 106.474 30.488ZM116.176 32V19.136H117.976V21.248L117.736 20.936C118.04 20.328 118.496 19.848 119.104 19.496C119.728 19.144 120.48 18.968 121.36 18.968H122.176V20.768H121.048C120.12 20.768 119.376 21.056 118.816 21.632C118.256 22.208 117.976 23.024 117.976 24.08V32H116.176ZM129.206 32.144C128.054 32.144 127.166 31.808 126.542 31.136C125.918 30.464 125.605 29.504 125.605 28.256V20.936H123.229V19.136H123.83C124.374 19.136 124.806 18.96 125.126 18.608C125.446 18.24 125.605 17.784 125.605 17.24V16.16H127.406V19.136H130.238V20.936H127.406V28.256C127.406 28.688 127.47 29.072 127.598 29.408C127.726 29.728 127.942 29.984 128.246 30.176C128.566 30.368 128.99 30.464 129.518 30.464C129.646 30.464 129.798 30.456 129.974 30.44C130.15 30.424 130.302 30.408 130.43 30.392V32C130.238 32.048 130.022 32.08 129.782 32.096C129.542 32.128 129.35 32.144 129.206 32.144ZM133.59 32V13.832H135.39V32H133.59ZM144.931 32.288C143.731 32.288 142.643 32 141.667 31.424C140.707 30.832 139.947 30.024 139.387 29C138.827 27.976 138.547 26.816 138.547 25.52C138.547 24.224 138.819 23.08 139.363 22.088C139.907 21.08 140.643 20.288 141.571 19.712C142.515 19.136 143.571 18.848 144.739 18.848C145.667 18.848 146.491 19.024 147.211 19.376C147.947 19.712 148.571 20.176 149.083 20.768C149.595 21.344 149.987 22 150.259 22.736C150.531 23.456 150.667 24.2 150.667 24.968C150.667 25.128 150.659 25.312 150.643 25.52C150.627 25.712 150.603 25.912 150.571 26.12H139.699V24.44H149.539L148.675 25.16C148.819 24.28 148.715 23.496 148.363 22.808C148.027 22.104 147.539 21.552 146.899 21.152C146.259 20.736 145.539 20.528 144.739 20.528C143.939 20.528 143.195 20.736 142.507 21.152C141.835 21.568 141.307 22.152 140.923 22.904C140.539 23.64 140.387 24.52 140.467 25.544C140.387 26.568 140.547 27.464 140.947 28.232C141.363 28.984 141.923 29.568 142.627 29.984C143.347 30.4 144.115 30.608 144.931 30.608C145.875 30.608 146.667 30.384 147.307 29.936C147.947 29.488 148.467 28.928 148.867 28.256L150.403 29.072C150.147 29.648 149.755 30.184 149.227 30.68C148.699 31.16 148.067 31.552 147.331 31.856C146.611 32.144 145.811 32.288 144.931 32.288ZM158.304 32.288C157.072 32.288 155.992 31.976 155.064 31.352C154.136 30.728 153.464 29.88 153.048 28.808L154.56 28.088C154.928 28.872 155.44 29.496 156.096 29.96C156.768 30.424 157.504 30.656 158.304 30.656C159.072 30.656 159.72 30.472 160.248 30.104C160.776 29.72 161.04 29.224 161.04 28.616C161.04 28.168 160.912 27.816 160.656 27.56C160.4 27.288 160.104 27.08 159.768 26.936C159.432 26.792 159.136 26.688 158.88 26.624L157.032 26.096C155.848 25.76 154.992 25.288 154.464 24.68C153.936 24.072 153.672 23.368 153.672 22.568C153.672 21.816 153.864 21.16 154.248 20.6C154.632 20.04 155.152 19.608 155.808 19.304C156.464 19 157.192 18.848 157.992 18.848C159.08 18.848 160.064 19.136 160.944 19.712C161.84 20.272 162.472 21.056 162.84 22.064L161.304 22.784C160.984 22.064 160.52 21.504 159.912 21.104C159.32 20.688 158.656 20.48 157.92 20.48C157.2 20.48 156.624 20.664 156.192 21.032C155.76 21.4 155.544 21.864 155.544 22.424C155.544 22.856 155.656 23.2 155.88 23.456C156.104 23.712 156.36 23.904 156.648 24.032C156.952 24.16 157.216 24.256 157.44 24.32L159.576 24.944C160.616 25.248 161.424 25.72 162 26.36C162.592 27 162.888 27.752 162.888 28.616C162.888 29.32 162.688 29.952 162.288 30.512C161.904 31.072 161.368 31.512 160.68 31.832C159.992 32.136 159.2 32.288 158.304 32.288ZM170.515 32.288C169.283 32.288 168.203 31.976 167.275 31.352C166.347 30.728 165.675 29.88 165.259 28.808L166.771 28.088C167.139 28.872 167.651 29.496 168.307 29.96C168.979 30.424 169.715 30.656 170.515 30.656C171.283 30.656 171.931 30.472 172.459 30.104C172.987 29.72 173.251 29.224 173.251 28.616C173.251 28.168 173.123 27.816 172.867 27.56C172.611 27.288 172.315 27.08 171.979 26.936C171.643 26.792 171.347 26.688 171.091 26.624L169.243 26.096C168.059 25.76 167.203 25.288 166.675 24.68C166.147 24.072 165.883 23.368 165.883 22.568C165.883 21.816 166.075 21.16 166.459 20.6C166.843 20.04 167.363 19.608 168.019 19.304C168.675 19 169.403 18.848 170.203 18.848C171.291 18.848 172.275 19.136 173.155 19.712C174.051 20.272 174.683 21.056 175.051 22.064L173.515 22.784C173.195 22.064 172.731 21.504 172.123 21.104C171.531 20.688 170.867 20.48 170.131 20.48C169.411 20.48 168.835 20.664 168.403 21.032C167.971 21.4 167.755 21.864 167.755 22.424C167.755 22.856 167.867 23.2 168.091 23.456C168.315 23.712 168.571 23.904 168.859 24.032C169.163 24.16 169.427 24.256 169.651 24.32L171.787 24.944C172.827 25.248 173.635 25.72 174.211 26.36C174.803 27 175.099 27.752 175.099 28.616C175.099 29.32 174.899 29.952 174.499 30.512C174.115 31.072 173.579 31.512 172.891 31.832C172.203 32.136 171.411 32.288 170.515 32.288ZM192.274 32.288C191.074 32.288 189.986 32 189.01 31.424C188.05 30.832 187.29 30.024 186.73 29C186.17 27.976 185.89 26.816 185.89 25.52C185.89 24.224 186.162 23.08 186.706 22.088C187.25 21.08 187.986 20.288 188.914 19.712C189.858 19.136 190.914 18.848 192.082 18.848C193.01 18.848 193.834 19.024 194.554 19.376C195.29 19.712 195.914 20.176 196.426 20.768C196.938 21.344 197.33 22 197.602 22.736C197.874 23.456 198.01 24.2 198.01 24.968C198.01 25.128 198.002 25.312 197.986 25.52C197.97 25.712 197.946 25.912 197.914 26.12H187.042V24.44H196.882L196.018 25.16C196.162 24.28 196.058 23.496 195.706 22.808C195.37 22.104 194.882 21.552 194.242 21.152C193.602 20.736 192.882 20.528 192.082 20.528C191.282 20.528 190.538 20.736 189.85 21.152C189.178 21.568 188.65 22.152 188.266 22.904C187.882 23.64 187.73 24.52 187.81 25.544C187.73 26.568 187.89 27.464 188.29 28.232C188.706 28.984 189.266 29.568 189.97 29.984C190.69 30.4 191.458 30.608 192.274 30.608C193.218 30.608 194.01 30.384 194.65 29.936C195.29 29.488 195.81 28.928 196.21 28.256L197.746 29.072C197.49 29.648 197.098 30.184 196.57 30.68C196.042 31.16 195.41 31.552 194.674 31.856C193.954 32.144 193.154 32.288 192.274 32.288ZM201.184 32V13.832H202.984V32H201.184ZM212.524 32.288C211.324 32.288 210.236 32 209.26 31.424C208.3 30.832 207.54 30.024 206.98 29C206.42 27.976 206.14 26.816 206.14 25.52C206.14 24.224 206.412 23.08 206.956 22.088C207.5 21.08 208.236 20.288 209.164 19.712C210.108 19.136 211.164 18.848 212.332 18.848C213.26 18.848 214.084 19.024 214.804 19.376C215.54 19.712 216.164 20.176 216.676 20.768C217.188 21.344 217.58 22 217.852 22.736C218.124 23.456 218.26 24.2 218.26 24.968C218.26 25.128 218.252 25.312 218.236 25.52C218.22 25.712 218.196 25.912 218.164 26.12H207.292V24.44H217.132L216.268 25.16C216.412 24.28 216.308 23.496 215.956 22.808C215.62 22.104 215.132 21.552 214.492 21.152C213.852 20.736 213.132 20.528 212.332 20.528C211.532 20.528 210.788 20.736 210.1 21.152C209.428 21.568 208.9 22.152 208.516 22.904C208.132 23.64 207.98 24.52 208.06 25.544C207.98 26.568 208.14 27.464 208.54 28.232C208.956 28.984 209.516 29.568 210.22 29.984C210.94 30.4 211.708 30.608 212.524 30.608C213.468 30.608 214.26 30.384 214.9 29.936C215.54 29.488 216.06 28.928 216.46 28.256L217.996 29.072C217.74 29.648 217.348 30.184 216.82 30.68C216.292 31.16 215.66 31.552 214.924 31.856C214.204 32.144 213.404 32.288 212.524 32.288ZM227.314 32.288C226.05 32.288 224.938 31.992 223.978 31.4C223.018 30.808 222.266 30.008 221.722 29C221.178 27.976 220.906 26.824 220.906 25.544C220.906 24.264 221.178 23.12 221.722 22.112C222.266 21.104 223.018 20.312 223.978 19.736C224.938 19.144 226.05 18.848 227.314 18.848C228.114 18.848 228.866 18.992 229.57 19.28C230.274 19.568 230.898 19.96 231.442 20.456C231.986 20.936 232.394 21.496 232.666 22.136L231.034 22.976C230.714 22.288 230.226 21.728 229.57 21.296C228.914 20.864 228.162 20.648 227.314 20.648C226.466 20.648 225.698 20.864 225.01 21.296C224.338 21.712 223.802 22.296 223.402 23.048C223.018 23.784 222.826 24.624 222.826 25.568C222.826 26.496 223.018 27.336 223.402 28.088C223.802 28.824 224.338 29.408 225.01 29.84C225.698 30.272 226.466 30.488 227.314 30.488C228.162 30.488 228.906 30.272 229.546 29.84C230.202 29.408 230.698 28.832 231.034 28.112L232.666 29C232.394 29.624 231.986 30.184 231.442 30.68C230.898 31.176 230.274 31.568 229.57 31.856C228.866 32.144 228.114 32.288 227.314 32.288ZM240.745 32.144C239.593 32.144 238.705 31.808 238.081 31.136C237.457 30.464 237.145 29.504 237.145 28.256V20.936H234.769V19.136H235.369C235.913 19.136 236.345 18.96 236.665 18.608C236.985 18.24 237.145 17.784 237.145 17.24V16.16H238.945V19.136H241.777V20.936H238.945V28.256C238.945 28.688 239.009 29.072 239.137 29.408C239.265 29.728 239.481 29.984 239.785 30.176C240.105 30.368 240.529 30.464 241.057 30.464C241.185 30.464 241.337 30.456 241.513 30.44C241.689 30.424 241.841 30.408 241.969 30.392V32C241.777 32.048 241.561 32.08 241.321 32.096C241.081 32.128 240.889 32.144 240.745 32.144ZM245.129 32V19.136H246.929V21.248L246.689 20.936C246.993 20.328 247.449 19.848 248.057 19.496C248.681 19.144 249.433 18.968 250.313 18.968H251.129V20.768H250.001C249.073 20.768 248.329 21.056 247.769 21.632C247.209 22.208 246.929 23.024 246.929 24.08V32H245.129ZM259.263 32.288C258.047 32.288 256.943 32 255.951 31.424C254.959 30.832 254.167 30.032 253.575 29.024C252.999 28 252.711 26.84 252.711 25.544C252.711 24.264 252.999 23.12 253.575 22.112C254.151 21.104 254.927 20.312 255.903 19.736C256.895 19.144 258.015 18.848 259.263 18.848C260.511 18.848 261.623 19.136 262.599 19.712C263.591 20.288 264.367 21.08 264.927 22.088C265.503 23.096 265.791 24.248 265.791 25.544C265.791 26.856 265.495 28.024 264.903 29.048C264.311 30.056 263.519 30.848 262.527 31.424C261.551 32 260.463 32.288 259.263 32.288ZM259.263 30.488C260.127 30.488 260.903 30.272 261.591 29.84C262.295 29.408 262.847 28.816 263.247 28.064C263.663 27.312 263.871 26.472 263.871 25.544C263.871 24.616 263.663 23.784 263.247 23.048C262.847 22.312 262.295 21.728 261.591 21.296C260.903 20.864 260.127 20.648 259.263 20.648C258.399 20.648 257.615 20.864 256.911 21.296C256.223 21.728 255.671 22.312 255.255 23.048C254.839 23.784 254.631 24.616 254.631 25.544C254.631 26.472 254.839 27.312 255.255 28.064C255.671 28.816 256.223 29.408 256.911 29.84C257.615 30.272 258.399 30.488 259.263 30.488ZM268.965 32V19.136H270.765V21.632L270.357 21.536C270.677 20.704 271.197 20.048 271.917 19.568C272.653 19.088 273.501 18.848 274.461 18.848C275.373 18.848 276.189 19.056 276.909 19.472C277.645 19.888 278.221 20.464 278.637 21.2C279.069 21.92 279.285 22.736 279.285 23.648V32H277.485V24.344C277.485 23.56 277.341 22.896 277.053 22.352C276.781 21.808 276.389 21.392 275.877 21.104C275.381 20.8 274.805 20.648 274.149 20.648C273.493 20.648 272.909 20.8 272.397 21.104C271.885 21.392 271.485 21.816 271.197 22.376C270.909 22.92 270.765 23.576 270.765 24.344V32H268.965ZM282.723 32V19.136H284.523V32H282.723ZM282.723 16.76V14.12H284.523V16.76H282.723ZM294.087 32.288C292.823 32.288 291.711 31.992 290.751 31.4C289.791 30.808 289.039 30.008 288.495 29C287.951 27.976 287.679 26.824 287.679 25.544C287.679 24.264 287.951 23.12 288.495 22.112C289.039 21.104 289.791 20.312 290.751 19.736C291.711 19.144 292.823 18.848 294.087 18.848C294.887 18.848 295.639 18.992 296.343 19.28C297.047 19.568 297.671 19.96 298.215 20.456C298.759 20.936 299.167 21.496 299.439 22.136L297.807 22.976C297.487 22.288 296.999 21.728 296.343 21.296C295.687 20.864 294.935 20.648 294.087 20.648C293.239 20.648 292.471 20.864 291.783 21.296C291.111 21.712 290.575 22.296 290.175 23.048C289.791 23.784 289.599 24.624 289.599 25.568C289.599 26.496 289.791 27.336 290.175 28.088C290.575 28.824 291.111 29.408 291.783 29.84C292.471 30.272 293.239 30.488 294.087 30.488C294.935 30.488 295.679 30.272 296.319 29.84C296.975 29.408 297.471 28.832 297.807 28.112L299.439 29C299.167 29.624 298.759 30.184 298.215 30.68C297.671 31.176 297.047 31.568 296.343 31.856C295.639 32.144 294.887 32.288 294.087 32.288ZM306.676 36.8V19.136H308.476V22.016L308.188 21.512C308.7 20.696 309.38 20.048 310.228 19.568C311.092 19.088 312.076 18.848 313.18 18.848C314.396 18.848 315.476 19.144 316.42 19.736C317.38 20.312 318.132 21.104 318.676 22.112C319.236 23.12 319.516 24.272 319.516 25.568C319.516 26.848 319.236 28 318.676 29.024C318.132 30.032 317.38 30.832 316.42 31.424C315.476 32 314.396 32.288 313.18 32.288C312.076 32.288 311.076 32.04 310.18 31.544C309.3 31.032 308.636 30.312 308.188 29.384L308.476 29.12V36.8H306.676ZM313.084 30.488C313.948 30.488 314.716 30.272 315.388 29.84C316.076 29.408 316.612 28.824 316.996 28.088C317.396 27.336 317.596 26.496 317.596 25.568C317.596 24.624 317.396 23.784 316.996 23.048C316.612 22.312 316.076 21.728 315.388 21.296C314.716 20.864 313.948 20.648 313.084 20.648C312.22 20.648 311.436 20.864 310.732 21.296C310.044 21.728 309.492 22.32 309.076 23.072C308.676 23.808 308.476 24.64 308.476 25.568C308.476 26.496 308.676 27.336 309.076 28.088C309.492 28.824 310.044 29.408 310.732 29.84C311.436 30.272 312.22 30.488 313.084 30.488ZM326.404 32.288C325.588 32.288 324.86 32.136 324.22 31.832C323.58 31.512 323.076 31.08 322.708 30.536C322.34 29.992 322.156 29.368 322.156 28.664C322.156 27.992 322.3 27.384 322.588 26.84C322.876 26.28 323.324 25.808 323.932 25.424C324.54 25.04 325.316 24.768 326.26 24.608L331.3 23.768V25.4L326.692 26.168C325.764 26.328 325.092 26.624 324.676 27.056C324.276 27.488 324.076 28 324.076 28.592C324.076 29.168 324.3 29.656 324.748 30.056C325.212 30.456 325.804 30.656 326.524 30.656C327.404 30.656 328.172 30.472 328.828 30.104C329.484 29.72 329.996 29.208 330.364 28.568C330.732 27.928 330.916 27.216 330.916 26.432V23.168C330.916 22.4 330.636 21.776 330.076 21.296C329.516 20.816 328.788 20.576 327.892 20.576C327.108 20.576 326.42 20.776 325.828 21.176C325.236 21.56 324.796 22.064 324.508 22.688L322.876 21.8C323.116 21.256 323.492 20.76 324.004 20.312C324.532 19.864 325.132 19.512 325.804 19.256C326.476 18.984 327.172 18.848 327.892 18.848C328.836 18.848 329.668 19.032 330.388 19.4C331.124 19.768 331.692 20.28 332.092 20.936C332.508 21.576 332.716 22.32 332.716 23.168V32H330.916V29.432L331.18 29.696C330.956 30.176 330.604 30.616 330.124 31.016C329.66 31.4 329.108 31.712 328.468 31.952C327.844 32.176 327.156 32.288 326.404 32.288ZM336.682 37.28C336.426 37.28 336.162 37.256 335.89 37.208C335.634 37.176 335.378 37.112 335.122 37.016V35.336C335.282 35.352 335.482 35.376 335.722 35.408C335.978 35.456 336.234 35.48 336.49 35.48C337.274 35.48 337.874 35.312 338.29 34.976C338.706 34.656 339.114 34.032 339.514 33.104L340.33 31.184L340.282 32.768L334.834 19.136H336.778L341.242 30.392H340.738L345.178 19.136H347.17L341.29 33.632C341.034 34.256 340.706 34.848 340.306 35.408C339.922 35.968 339.434 36.416 338.842 36.752C338.25 37.104 337.53 37.28 336.682 37.28ZM349.286 32V19.136H351.086V21.584L350.798 21.224C351.15 20.472 351.67 19.888 352.358 19.472C353.062 19.056 353.83 18.848 354.662 18.848C355.654 18.848 356.55 19.128 357.35 19.688C358.15 20.248 358.718 20.976 359.054 21.872L358.55 21.896C358.87 20.904 359.422 20.152 360.206 19.64C361.006 19.112 361.886 18.848 362.846 18.848C363.71 18.848 364.502 19.056 365.222 19.472C365.958 19.888 366.542 20.464 366.974 21.2C367.422 21.92 367.646 22.736 367.646 23.648V32H365.846V24.344C365.846 23.56 365.702 22.896 365.414 22.352C365.142 21.808 364.766 21.392 364.286 21.104C363.806 20.8 363.254 20.648 362.63 20.648C362.022 20.648 361.47 20.8 360.974 21.104C360.478 21.392 360.086 21.816 359.798 22.376C359.51 22.92 359.366 23.576 359.366 24.344V32H357.566V24.344C357.566 23.56 357.422 22.896 357.134 22.352C356.862 21.808 356.486 21.392 356.006 21.104C355.526 20.8 354.974 20.648 354.35 20.648C353.726 20.648 353.166 20.8 352.67 21.104C352.19 21.392 351.806 21.816 351.518 22.376C351.23 22.92 351.086 23.576 351.086 24.344V32H349.286ZM376.938 32.288C375.738 32.288 374.65 32 373.674 31.424C372.714 30.832 371.954 30.024 371.394 29C370.834 27.976 370.554 26.816 370.554 25.52C370.554 24.224 370.826 23.08 371.37 22.088C371.914 21.08 372.65 20.288 373.578 19.712C374.522 19.136 375.578 18.848 376.746 18.848C377.674 18.848 378.498 19.024 379.218 19.376C379.954 19.712 380.578 20.176 381.09 20.768C381.602 21.344 381.994 22 382.266 22.736C382.538 23.456 382.674 24.2 382.674 24.968C382.674 25.128 382.666 25.312 382.65 25.52C382.634 25.712 382.61 25.912 382.578 26.12H371.706V24.44H381.546L380.682 25.16C380.826 24.28 380.722 23.496 380.37 22.808C380.034 22.104 379.546 21.552 378.906 21.152C378.266 20.736 377.546 20.528 376.746 20.528C375.946 20.528 375.202 20.736 374.514 21.152C373.842 21.568 373.314 22.152 372.93 22.904C372.546 23.64 372.394 24.52 372.474 25.544C372.394 26.568 372.554 27.464 372.954 28.232C373.37 28.984 373.93 29.568 374.634 29.984C375.354 30.4 376.122 30.608 376.938 30.608C377.882 30.608 378.674 30.384 379.314 29.936C379.954 29.488 380.474 28.928 380.874 28.256L382.41 29.072C382.154 29.648 381.762 30.184 381.234 30.68C380.706 31.16 380.074 31.552 379.338 31.856C378.618 32.144 377.818 32.288 376.938 32.288ZM385.848 32V19.136H387.648V21.632L387.24 21.536C387.56 20.704 388.08 20.048 388.8 19.568C389.536 19.088 390.384 18.848 391.344 18.848C392.256 18.848 393.072 19.056 393.792 19.472C394.528 19.888 395.104 20.464 395.52 21.2C395.952 21.92 396.168 22.736 396.168 23.648V32H394.368V24.344C394.368 23.56 394.224 22.896 393.936 22.352C393.664 21.808 393.272 21.392 392.76 21.104C392.264 20.8 391.688 20.648 391.032 20.648C390.376 20.648 389.792 20.8 389.28 21.104C388.768 21.392 388.368 21.816 388.08 22.376C387.792 22.92 387.648 23.576 387.648 24.344V32H385.848ZM404.526 32.144C403.374 32.144 402.486 31.808 401.862 31.136C401.238 30.464 400.926 29.504 400.926 28.256V20.936H398.55V19.136H399.15C399.694 19.136 400.126 18.96 400.446 18.608C400.766 18.24 400.926 17.784 400.926 17.24V16.16H402.726V19.136H405.558V20.936H402.726V28.256C402.726 28.688 402.79 29.072 402.918 29.408C403.046 29.728 403.262 29.984 403.566 30.176C403.886 30.368 404.31 30.464 404.838 30.464C404.966 30.464 405.118 30.456 405.294 30.44C405.47 30.424 405.622 30.408 405.75 30.392V32C405.558 32.048 405.342 32.08 405.102 32.096C404.862 32.128 404.67 32.144 404.526 32.144ZM413.375 32.288C412.143 32.288 411.063 31.976 410.135 31.352C409.207 30.728 408.535 29.88 408.119 28.808L409.631 28.088C409.999 28.872 410.511 29.496 411.167 29.96C411.839 30.424 412.575 30.656 413.375 30.656C414.143 30.656 414.791 30.472 415.319 30.104C415.847 29.72 416.111 29.224 416.111 28.616C416.111 28.168 415.983 27.816 415.727 27.56C415.471 27.288 415.175 27.08 414.839 26.936C414.503 26.792 414.207 26.688 413.951 26.624L412.103 26.096C410.919 25.76 410.063 25.288 409.535 24.68C409.007 24.072 408.743 23.368 408.743 22.568C408.743 21.816 408.935 21.16 409.319 20.6C409.703 20.04 410.223 19.608 410.879 19.304C411.535 19 412.263 18.848 413.062 18.848C414.151 18.848 415.135 19.136 416.015 19.712C416.911 20.272 417.543 21.056 417.911 22.064L416.375 22.784C416.055 22.064 415.591 21.504 414.983 21.104C414.391 20.688 413.727 20.48 412.991 20.48C412.271 20.48 411.695 20.664 411.263 21.032C410.831 21.4 410.615 21.864 410.615 22.424C410.615 22.856 410.727 23.2 410.951 23.456C411.175 23.712 411.431 23.904 411.719 24.032C412.023 24.16 412.287 24.256 412.511 24.32L414.647 24.944C415.687 25.248 416.495 25.72 417.071 26.36C417.663 27 417.959 27.752 417.959 28.616C417.959 29.32 417.759 29.952 417.359 30.512C416.975 31.072 416.439 31.512 415.751 31.832C415.063 32.136 414.271 32.288 413.375 32.288Z" fill="#202020"/>
<defs>
<clipPath id="clip0_2001_253">
<rect width="46" height="46" fill="white"/>
</clipPath>
</defs>
</svg>
