<svg width="40" height="43" viewBox="0 0 40 43" fill="none" xmlns="http://www.w3.org/2000/svg">
<path d="M18.4762 36.5349C14.2169 36.5349 10.5727 35.0126 7.54363 31.968C4.51454 28.9234 3 25.2605 3 20.9794C3 16.6983 4.51454 13.0354 7.54363 9.9908C10.5727 6.94615 14.2169 5.42383 18.4762 5.42383C20.3289 5.42383 22.1475 5.758 23.9319 6.42634C25.7162 7.09464 27.3117 8.08335 28.7182 9.39248L26.9484 11.206C25.7897 10.184 24.4786 9.3991 23.0152 8.8513C21.5518 8.30353 20.0388 8.02965 18.4762 8.02965C14.9206 8.02965 11.8844 9.29449 9.36766 11.8242C6.85091 14.3538 5.59253 17.4056 5.59253 20.9794C5.59253 24.5532 6.85091 27.6049 9.36766 30.1346C11.8844 32.6643 14.9206 33.9291 18.4762 33.9291C20.0388 33.9291 21.5518 33.6588 23.0152 33.1181C24.4786 32.5774 25.7897 31.8005 26.9484 30.7874L28.7182 32.5663C27.3117 33.8754 25.7162 34.8641 23.9319 35.5324C22.1475 36.2008 20.3289 36.5349 18.4762 36.5349ZM30.6349 28.3263L28.7884 26.4704L33.0874 22.1493H16.6084V19.6978H33.0874L28.7884 15.39L30.6349 13.5207L38 20.9235L30.6349 28.3263Z" fill="#F4B23E"/>
</svg>
