<svg width="40" height="42" viewBox="0 0 40 42" fill="none" xmlns="http://www.w3.org/2000/svg">
<path d="M10.1068 39.2409C9.39281 39.2409 8.77983 38.974 8.26792 38.4402C7.75597 37.9063 7.5 37.2671 7.5 36.5225V5.46156C7.5 4.71698 7.75597 4.07777 8.26792 3.54395C8.77983 3.01009 9.39281 2.74316 10.1068 2.74316H26.5598C27.2738 2.74316 27.8868 3.01009 28.3987 3.54395C28.9106 4.07777 29.1666 4.71698 29.1666 5.46156V11.5178H27.0726V9.07116H9.59396V32.9129H27.0726V30.4663H29.1666V36.5225C29.1666 37.2671 28.9106 37.9063 28.3987 38.4402C27.8868 38.974 27.2738 39.241 26.5598 39.241H10.1068V39.2409ZM9.59396 35.0965V36.5225C9.59396 36.6563 9.64739 36.7788 9.75425 36.8902C9.86108 37.0016 9.97861 37.0574 10.1068 37.0574H26.5598C26.688 37.0574 26.8055 37.0016 26.9123 36.8902C27.0192 36.7788 27.0726 36.6563 27.0726 36.5225V35.0965H9.59396ZM24.9166 27.3424L18.4103 20.5576L19.9017 19.0201L24.9166 24.2497L34.6303 14.1203L36.1217 15.6578L24.9166 27.3424ZM9.59396 6.88758H27.0726V5.46156C27.0726 5.32785 27.0192 5.20529 26.9123 5.09389C26.8055 4.98245 26.688 4.92674 26.5598 4.92674H10.1068C9.97861 4.92674 9.86108 4.98245 9.75425 5.09389C9.64739 5.20529 9.59396 5.32785 9.59396 5.46156V6.88758Z" fill="#F4B23E"/>
</svg>
