<svg width="40" height="42" viewBox="0 0 40 42" fill="none" xmlns="http://www.w3.org/2000/svg">
<path d="M22.5107 22.5158C21.3461 22.5158 20.3606 22.0952 19.5539 21.2541C18.7473 20.413 18.344 19.3852 18.344 18.1709C18.344 16.9565 18.7473 15.9288 19.5539 15.0876C20.3606 14.2465 21.3461 13.8259 22.5107 13.8259C23.6752 13.8259 24.6607 14.2465 25.4673 15.0876C26.2739 15.9288 26.6772 16.9565 26.6772 18.1709C26.6772 19.3852 26.2739 20.413 25.4673 21.2541C24.6607 22.0952 23.6752 22.5158 22.5107 22.5158ZM10.7051 28.3202C9.99378 28.3202 9.38147 28.0526 8.86819 27.5174C8.35494 26.9822 8.09832 26.3437 8.09832 25.6019V10.7399C8.09832 9.99808 8.35494 9.35956 8.86819 8.82435C9.38147 8.2891 9.99378 8.02148 10.7051 8.02148H34.3162C35.0275 8.02148 35.6398 8.2891 36.1531 8.82435C36.6663 9.35956 36.9229 9.99808 36.9229 10.7399V25.6019C36.9229 26.3437 36.6663 26.9822 36.1531 27.5174C35.6398 28.0526 35.0275 28.3202 34.3162 28.3202H10.7051ZM13.6111 26.1367H31.4102C31.4102 25.1481 31.7437 24.3068 32.4106 23.6127C33.0776 22.9186 33.8837 22.5716 34.829 22.5716V13.7702C33.881 13.7702 33.0742 13.4224 32.4086 12.7269C31.743 12.0315 31.4102 11.1908 31.4102 10.2051H13.6111C13.6111 11.1936 13.2776 12.0349 12.6107 12.729C11.9437 13.4231 11.1376 13.7702 10.1923 13.7702V22.5716C11.1403 22.5716 11.9471 22.9193 12.6127 23.6148C13.2783 24.3103 13.6111 25.1509 13.6111 26.1367ZM31.955 33.5565H5.68382C4.97246 33.5565 4.36015 33.2888 3.8469 32.7536C3.33365 32.2184 3.07703 31.5799 3.07703 30.8381V13.2021H5.17098V30.8381C5.17098 30.9718 5.2244 31.0943 5.33123 31.2057C5.43807 31.3172 5.5556 31.3729 5.68382 31.3729H31.955V33.5565ZM10.7051 26.1367H10.1923V10.2051H10.7051C10.5662 10.2051 10.446 10.258 10.3445 10.3638C10.243 10.4697 10.1923 10.595 10.1923 10.7399V25.6019C10.1923 25.7467 10.243 25.8721 10.3445 25.9779C10.446 26.0838 10.5662 26.1367 10.7051 26.1367Z" fill="#F4B23E"/>
</svg>
