<svg width="41" height="41" viewBox="0 0 41 41" fill="none" xmlns="http://www.w3.org/2000/svg">
<path d="M18.6493 26.3088L28.3583 16.5998L26.351 14.621L18.7347 22.2373L14.6632 18.1658L12.5989 20.23L18.6493 26.3088ZM20.5 37.5553C16.5233 36.5588 13.2514 34.2597 10.6842 30.6579C8.11694 27.0562 6.83331 23.0914 6.83331 18.7637V8.51367L20.5 3.38867L34.1666 8.51367V18.7637C34.1666 23.0914 32.883 27.0562 30.3158 30.6579C27.7485 34.2597 24.4766 36.5588 20.5 37.5553ZM20.5 34.5942C23.6699 33.5598 26.2656 31.5715 28.2872 28.6293C30.3087 25.6872 31.3195 22.3986 31.3195 18.7637V10.4925L20.5 6.42096L9.68051 10.4925V18.7637C9.68051 22.3986 10.6913 25.6872 12.7128 28.6293C14.7343 31.5715 17.3301 33.5598 20.5 34.5942Z" fill="white"/>
</svg>
